<?xml version="1.0" encoding="UTF-8"?>
<svg version="1.1" xmlns="http://www.w3.org/2000/svg" width="256" height="256">
<path d="M0 0 C3.16310782 2.32601638 5.41498871 5.23635706 7.80078125 8.32421875 C12.70655194 14.91823154 12.70655194 14.91823154 19.80078125 18.32421875 C25.97054646 18.78826947 30.85689791 18.05334845 36.80078125 16.32421875 C44.14808586 15.23317164 49.65735011 17.29501346 55.80078125 21.32421875 C59.540365 24.9703129 61.64951149 29.06061264 61.89550781 34.36791992 C61.83989781 37.42138386 61.71656051 40.46642773 61.546875 43.515625 C61.37953031 49.31362638 62.56982046 53.47427782 65.80078125 58.32421875 C69.21748228 61.8222698 72.38501797 63.65046371 76.80078125 65.69921875 C82.82872306 68.59517272 86.34790338 72.22034329 89.17578125 78.26171875 C90.52550534 84.8753668 90.44461095 90.48899496 86.80078125 96.32421875 C84.5913151 99.11006738 82.2130846 101.71409553 79.80078125 104.32421875 C75.28424807 109.67274488 74.41543388 113.39221981 74.43359375 120.29296875 C74.83641662 123.61840012 75.78762037 125.84919058 77.30078125 128.82421875 C80.44310309 135.09990995 81.13465554 140.78904618 79.13671875 147.58203125 C76.94172035 152.60189716 73.65213952 156.70327027 68.80078125 159.32421875 C64.83708948 160.36012169 60.8628167 160.83742356 56.80078125 161.32421875 C49.96479095 162.53392655 44.85819834 164.48014218 40.67578125 170.26171875 C38.87882642 173.64379227 38.02565687 177.13240718 37.05078125 180.82421875 C35.18421365 187.23547269 32.51443583 190.86623414 26.80078125 194.32421875 C21.02666063 197.07158259 14.61028902 197.57049954 8.484375 195.56640625 C5.37972647 194.07004814 2.85894031 192.3712999 0.17578125 190.19921875 C-3.90128559 186.98048177 -7.52384648 186.09331423 -12.63671875 186.44921875 C-18.58156314 187.2970573 -22.50789786 190.18582969 -27.44921875 193.51171875 C-32.76507981 197.01535445 -38.01506428 196.91721986 -44.19921875 196.32421875 C-50.29349077 194.597855 -55.03919021 190.79277114 -58.19921875 185.32421875 C-59.37311485 182.03238422 -60.3360653 178.71955471 -61.28125 175.35546875 C-62.824158 170.26058956 -64.88816981 167.3730579 -69.01171875 164.07421875 C-73.79157198 161.54920933 -79.28387874 161.39634287 -84.578125 160.9140625 C-89.9620457 160.03707002 -93.96189561 158.18382542 -97.44921875 153.94921875 C-98.16851562 153.10230469 -98.16851562 153.10230469 -98.90234375 152.23828125 C-102.69902954 146.63473897 -103.09276016 140.89998954 -102.19921875 134.32421875 C-101.078125 131.55078125 -101.078125 131.55078125 -99.69921875 128.82421875 C-96.65323926 122.74961578 -95.67955062 116.90110159 -97.86328125 110.32421875 C-99.99448899 106.17299671 -103.24575074 103.15026307 -106.5859375 99.953125 C-110.90387769 95.59336457 -112.05354142 91.50937871 -112.44921875 85.57421875 C-112.32762211 80.11250287 -111.19819924 75.63479092 -107.5703125 71.44140625 C-103.27925194 67.43641639 -98.74722301 65.04332981 -93.46875 62.5703125 C-88.56544904 59.87813865 -85.81055915 55.62791316 -84.19921875 50.32421875 C-83.99279228 46.57892052 -84.20068275 42.83807555 -84.36523438 39.09375 C-84.5275939 32.43141094 -83.31913367 27.92868565 -79.01171875 22.63671875 C-73.45831805 18.07058929 -68.62445012 15.72792009 -61.34765625 16.05078125 C-59.19921875 16.32421875 -59.19921875 16.32421875 -55.76171875 17.32421875 C-50.01843619 18.93636824 -44.64460408 19.12367165 -38.94921875 17.26171875 C-35.36152685 14.73402673 -32.909956 11.74652452 -30.19921875 8.32421875 C-22.33161117 -1.60135099 -12.0290705 -6.87031081 0 0 Z M-61.44921875 59.07421875 C-71.60665252 72.4122631 -75.40314203 88.19928745 -73.76953125 104.7265625 C-71.37537391 119.82943172 -64.91812453 131.56841484 -54.19921875 142.32421875 C-53.58433594 142.96230469 -52.96945313 143.60039062 -52.3359375 144.2578125 C-40.51134003 155.6266439 -24.72488949 159.8396908 -8.75561523 159.74633789 C8.3032087 159.25839441 21.82000059 152.24324281 33.80078125 140.32421875 C34.42726563 139.73253906 35.05375 139.14085937 35.69921875 138.53125 C46.56597941 127.39404959 51.54895904 111.70200399 51.88671875 96.44140625 C51.14284843 77.37483532 43.43357041 62.30782747 29.80078125 49.32421875 C26.60844711 46.71017194 23.33732104 44.44494785 19.80078125 42.32421875 C19.18203125 41.93878906 18.56328125 41.55335937 17.92578125 41.15625 C-9.61145062 25.66655708 -41.88490653 36.25535175 -61.44921875 59.07421875 Z " fill="#42AE00" transform="translate(139.19921875,7.67578125)"/>
<path d="M0 0 C0.91523438 0.40089844 1.83046875 0.80179688 2.7734375 1.21484375 C15.63079661 7.42743323 24.70752662 18.49138923 30.0546875 31.58203125 C34.96452705 45.68028481 34.61288309 61.66372493 28.5234375 75.30859375 C20.72066468 90.71817935 9.42682308 100.54569817 -7 106 C-23.02019808 110.20776749 -38.26359296 107.72008117 -52.8046875 99.9453125 C-65.68418852 92.10424709 -74.29675949 79.34839807 -78.3125 64.875 C-81.29054944 48.95388953 -78.47133288 33.76361893 -70 20 C-67.22447532 16.41557923 -64.22336837 13.18343283 -61 10 C-60.44699219 9.42507812 -59.89398438 8.85015625 -59.32421875 8.2578125 C-44.66700148 -5.78111025 -17.97280695 -8.66061241 0 0 Z M-4 27 C-6.20181692 29.35293459 -6.20181692 29.35293459 -8.25 32.0625 C-11.26770815 35.86721842 -14.3426813 39.5458163 -17.625 43.125 C-21.17776428 47.00695398 -24.39688118 51.03097921 -27.4921875 55.28515625 C-29 57 -29 57 -32 58 C-32.3403125 57.18595703 -32.3403125 57.18595703 -32.6875 56.35546875 C-34.40858905 53.26672858 -36.60992517 50.91448554 -39 48.3125 C-39.886875 47.33925781 -40.77375 46.36601563 -41.6875 45.36328125 C-44.30475522 42.68855252 -45.14919013 42.11344132 -48.8125 41.625 C-52.16160176 41.75167161 -52.16160176 41.75167161 -54.875 44.125 C-57.41439203 47.56064804 -57.4844729 48.82207244 -57 53 C-55.52212522 55.60537553 -55.52212522 55.60537553 -53.3125 58 C-52.50296875 58.93585938 -51.6934375 59.87171875 -50.859375 60.8359375 C-49.90881828 61.8929403 -48.95549183 62.94745625 -48 64 C-47.44892578 64.61133789 -46.89785156 65.22267578 -46.33007812 65.85253906 C-39.48062216 74.64054746 -39.48062216 74.64054746 -30.1875 79.375 C-25.90315346 78.87095923 -24.90701549 77.12730938 -22 74 C-21.14921875 73.10023437 -20.2984375 72.20046875 -19.421875 71.2734375 C-14.14476058 65.54884846 -9.07938421 59.73970065 -4.19921875 53.66796875 C-1.9404056 50.92770342 0.41359381 48.30555586 2.8125 45.6875 C8.63508773 39.58651226 8.63508773 39.58651226 11.5 31.875 C10.86804859 28.24127938 9.99362869 27.12705196 7 25 C2.12749229 23.44494435 0.08813658 24.10914773 -4 27 Z " fill="#43B000" transform="translate(151,53)"/>
<path d="M0 0 C2.64507941 2.33609606 3.88799149 4.57540354 5.26831055 7.80688477 C5.68851974 8.78121964 6.10872894 9.7555545 6.54167175 10.75941467 C6.98553726 11.80947189 7.42940277 12.85952911 7.88671875 13.94140625 C8.5795269 15.55933327 8.5795269 15.55933327 9.28633118 17.20994568 C10.26048206 19.48900422 11.23111425 21.76956953 12.19848633 24.05151367 C13.68454587 27.55553437 15.18216038 31.05443885 16.68164062 34.55273438 C17.6256847 36.76533299 18.56906688 38.97821415 19.51171875 41.19140625 C19.96165695 42.2434877 20.41159515 43.29556915 20.87516785 44.37953186 C21.28592056 45.35071457 21.69667328 46.32189728 22.11987305 47.32250977 C22.48388718 48.17949966 22.84790131 49.03648956 23.22294617 49.91944885 C24 52 24 52 24 54 C16.0764504 52.44435164 8.57495755 49.97360331 0.9375 47.375 C-0.93325195 46.74464844 -0.93325195 46.74464844 -2.84179688 46.1015625 C-5.89594465 45.07181153 -8.94860185 44.03786449 -12 43 C-12.26731934 43.85609863 -12.53463867 44.71219727 -12.81005859 45.59423828 C-14.01235961 49.03537475 -15.44697879 52.21436809 -17.0390625 55.4921875 C-17.32478119 56.08299103 -17.61049988 56.67379456 -17.90487671 57.28250122 C-18.808176 59.14834319 -19.71649161 61.0116898 -20.625 62.875 C-21.24252227 64.1482752 -21.85971299 65.42171124 -22.4765625 66.6953125 C-23.98054817 69.79874308 -25.48903927 72.89995825 -27 76 C-30.34443877 72.91940094 -31.84613232 69.30997877 -33.609375 65.19140625 C-33.9404425 64.42827621 -34.27151001 63.66514618 -34.61260986 62.87889099 C-35.30876408 61.26745682 -36.00112499 59.65437931 -36.68994141 58.03979492 C-37.74712401 55.56922102 -38.82396708 53.10786805 -39.90234375 50.64648438 C-40.57673542 49.07864689 -41.24995272 47.51030362 -41.921875 45.94140625 C-42.24573181 45.20588028 -42.56958862 44.47035431 -42.90325928 43.71253967 C-44.46587478 39.99960913 -45.24770712 37.84238129 -44 34 C-43.484375 34.165 -42.96875 34.33 -42.4375 34.5 C-34.44059572 36.14039062 -27.83523119 34.03041651 -20.8125 30.3125 C-13.8890534 24.61988835 -11.2266217 18.68680532 -9.0546875 10.05078125 C-7.60948096 5.87038752 -5.59663827 2.93137232 -1.75 0.6875 C-1.1725 0.460625 -0.595 0.23375 0 0 Z " fill="#40AB00" transform="translate(192,175)"/>
<path d="M0 0 C4.89935206 2.00428039 7.84793915 4.16473137 10 9 C10.62620392 11.11861063 11.22808726 13.24448267 11.8125 15.375 C13.88473928 22.44641577 16.81616854 27.27971415 23.0546875 31.3359375 C30.42607686 35.25807297 37.84220289 35.97764778 46 34 C45.38845282 39.18720328 43.74505732 43.46331249 41.69140625 48.20703125 C41.20123268 49.35603157 41.20123268 49.35603157 40.70115662 50.52824402 C40.01261078 52.13733532 39.32074111 53.74500796 38.62573242 55.35131836 C37.5601478 57.8179449 36.50895669 60.29036561 35.45898438 62.76367188 C34.78731005 64.32849086 34.11481289 65.89295697 33.44140625 67.45703125 C33.12675919 68.19862991 32.81211212 68.94022858 32.4879303 69.70429993 C30.22995283 74.88502358 30.22995283 74.88502358 28 76 C25.85877838 71.62416305 23.72266985 67.24588255 21.59130859 62.86523438 C20.86517898 61.3746381 20.13764474 59.88472523 19.40869141 58.39550781 C18.36252732 56.25763236 17.32140168 54.11736833 16.28125 51.9765625 C15.95314331 51.30879791 15.62503662 50.64103333 15.2869873 49.95303345 C13 45.22774341 13 45.22774341 13 43 C12.01604248 43.33845947 11.03208496 43.67691895 10.01831055 44.02563477 C6.37050056 45.27774339 2.7187458 46.51797496 -0.93432617 47.75463867 C-2.51550856 48.29176345 -4.09559934 48.83211281 -5.67456055 49.37573242 C-7.94301263 50.15611415 -10.21512457 50.92485383 -12.48828125 51.69140625 C-13.19463211 51.93717911 -13.90098297 52.18295197 -14.6287384 52.43617249 C-19.65838488 54.11387171 -19.65838488 54.11387171 -23 53 C-20.99388576 48.16520664 -18.98571907 43.33127225 -16.97583008 38.49804688 C-16.295609 36.86154981 -15.61590227 35.22483883 -14.93676758 33.58789062 C-11.37021946 24.99227207 -7.77797329 16.40919043 -4.06640625 7.875 C-3.77160873 7.1936499 -3.47681122 6.5122998 -3.17308044 5.81030273 C-1.11987786 1.11987786 -1.11987786 1.11987786 0 0 Z " fill="#1D7400" transform="translate(63,175)"/>
</svg>
