<?xml version="1.0" encoding="UTF-8"?>
<svg version="1.1" xmlns="http://www.w3.org/2000/svg" width="256" height="256">
<path d="M0 0 C4.16347012 3.4964018 8.08707008 7.22822917 12 11 C12.71800781 11.65484375 13.43601563 12.3096875 14.17578125 12.984375 C20.46536293 18.88322115 25.23469978 25.86116307 30 33 C30.63035156 33.93457031 31.26070312 34.86914062 31.91015625 35.83203125 C49.23044184 63.41034475 53.95913247 99.78984875 46.83911133 131.37744141 C40.84333447 155.12223889 28.91829939 175.44853072 12 193 C11.34515625 193.71800781 10.6903125 194.43601563 10.015625 195.17578125 C4.11677885 201.46536293 -2.86116307 206.23469978 -10 211 C-10.93457031 211.63035156 -11.86914062 212.26070312 -12.83203125 212.91015625 C-40.41034475 230.23044184 -76.78984875 234.95913247 -108.37744141 227.83911133 C-131.57300651 221.98202063 -151.76553935 210.50045466 -169 194 C-170.11955078 192.97519531 -170.11955078 192.97519531 -171.26171875 191.9296875 C-177.88236958 185.66722196 -182.97963336 178.55651738 -188 171 C-188.6290625 170.06671875 -189.258125 169.1334375 -189.90625 168.171875 C-207.23601593 140.60179284 -211.95805078 104.20535241 -204.83911133 72.62255859 C-198.84333447 48.87776111 -186.91829939 28.55146928 -170 11 C-169.34515625 10.28199219 -168.6903125 9.56398437 -168.015625 8.82421875 C-162.11677885 2.53463707 -155.13883693 -2.23469978 -148 -7 C-147.06542969 -7.63035156 -146.13085938 -8.26070312 -145.16796875 -8.91015625 C-101.47012457 -36.35415281 -40.12596623 -31.83598863 0 0 Z M-71.59375 55.98046875 C-76.44162051 62.94254946 -77.0330541 69.71588997 -76 78 C-73.39099072 86.46478566 -68.3538952 91.52425567 -60.8125 95.8125 C-53.73108531 98.80243065 -47.04251717 99.01694081 -39.8125 96.3125 C-31.83243627 92.75482453 -27.53269892 87.8676442 -24 80 C-21.78661436 72.8835449 -22.32677552 65.79172843 -25.6796875 59.16796875 C-29.95078207 52.15478092 -34.8367409 46.98832786 -43 45 C-54.93630283 43.42746324 -64.0827199 46.43224888 -71.59375 55.98046875 Z M-123 104 C-123.6290625 103.3503125 -124.258125 102.700625 -124.90625 102.03125 C-129.16310655 99.23634418 -132.51954481 99.40847556 -137.5 99.5 C-138.76263672 99.47679688 -138.76263672 99.47679688 -140.05078125 99.453125 C-144.02186091 99.47813968 -146.45305146 99.69486029 -149.96875 101.65625 C-154.31391805 106.66990544 -154.30816804 112.34455709 -154.30078125 118.65234375 C-154.30506638 119.47070206 -154.3093515 120.28906036 -154.31376648 121.13221741 C-154.31948671 122.85595783 -154.32002713 124.57972238 -154.31567383 126.3034668 C-154.31251381 128.92604131 -154.33600128 131.54748652 -154.36132812 134.16992188 C-154.36360152 135.85156109 -154.36430443 137.53320331 -154.36328125 139.21484375 C-154.372491 139.99109604 -154.38170074 140.76734833 -154.39118958 141.56712341 C-154.34748643 146.76546579 -153.42562656 150.37981142 -151 155 C-146.91133517 158.62943074 -142.69923917 158.45581719 -137.5 158.375 C-136.75363281 158.38660156 -136.00726563 158.39820313 -135.23828125 158.41015625 C-130.71112615 158.38611826 -127.63643949 157.97908312 -124 155 C-123.67 154.01 -123.34 153.02 -123 152 C-122.14003418 152.21148682 -122.14003418 152.21148682 -121.26269531 152.42724609 C-118.59288751 153.08104379 -115.92147061 153.72803161 -113.25 154.375 C-111.89841797 154.70757812 -111.89841797 154.70757812 -110.51953125 155.046875 C-99.4702671 157.71123657 -88.88418065 159.3478546 -77.5 159.3125 C-76.46230469 159.32861328 -75.42460937 159.34472656 -74.35546875 159.36132812 C-63.94769776 159.36780868 -54.2882612 157.23652692 -45 152.5 C-44.32775391 152.16033203 -43.65550781 151.82066406 -42.96289062 151.47070312 C-35.91554907 147.71613654 -30.56350446 142.64729218 -25 137 C-24.3090625 136.37867188 -23.618125 135.75734375 -22.90625 135.1171875 C-18.1186312 130.74161786 -14.31587013 125.65423133 -10.5 120.4375 C-9.68789063 119.35637939 -9.68789063 119.35637939 -8.859375 118.25341797 C-5.65819172 113.74969136 -4.13406259 110.72240304 -5 105 C-6.86000815 102.73660301 -6.86000815 102.73660301 -9.75 102.625 C-16.41645006 103.39420578 -20.80592692 108.55918771 -25.25 113.1875 C-30.76201373 118.88100686 -30.76201373 118.88100686 -33 120 C-33.020625 118.96875 -33.04125 117.9375 -33.0625 116.875 C-34.16062171 112.33609695 -35.54142856 111.03872946 -39.015625 108.1640625 C-43.3307324 105.63275934 -48.07216331 105.88838313 -52.953125 105.89453125 C-54.30860962 105.88106994 -55.66407945 105.86604582 -57.01953125 105.84960938 C-59.1305708 105.82687059 -61.23992959 105.81244032 -63.35107422 105.82495117 C-71.31461715 105.85949409 -77.72887325 105.75626757 -84.10888672 100.46704102 C-89.70369404 96.12683999 -97.39993624 95.44071593 -104.26171875 95.64453125 C-111.30521831 96.55887998 -117.35169579 99.83809163 -123 104 Z " fill="#1DAD09" transform="translate(207,26)"/>
<path d="M0 0 C2.24609375 1.36328125 2.24609375 1.36328125 4.88452148 3.9152832 C8.42786647 6.88355196 11.78885736 7.01754846 16.27734375 6.89453125 C17.0314856 6.89779419 17.78562744 6.90105713 18.56262207 6.90441895 C20.95784435 6.91420953 23.35105233 6.89271859 25.74609375 6.86328125 C28.90308748 6.82447879 32.05768829 6.81837121 35.21484375 6.83203125 C35.93063599 6.81241333 36.64642822 6.79279541 37.38391113 6.77258301 C41.23839423 6.79242209 43.70715603 7.34690393 46.68554688 9.70898438 C49.7134225 12.84772044 50.14479179 14.45156358 50.62109375 18.73828125 C50.24609375 22.36328125 50.24609375 22.36328125 48.4230957 25.0456543 C43.7601114 28.44730726 39.67779252 28.09151226 34.0390625 28.0703125 C32.95853104 28.08543381 31.87799957 28.10055511 30.76472473 28.11613464 C27.32080273 28.15904883 23.87775662 28.16785369 20.43359375 28.17578125 C18.09567978 28.1989225 15.75778668 28.22428705 13.41992188 28.25195312 C7.69530423 28.31484222 1.97102937 28.3497469 -3.75390625 28.36328125 C-3.75390625 29.35328125 -3.75390625 30.34328125 -3.75390625 31.36328125 C3.07857809 31.39785229 9.9093718 31.37778929 16.74169922 31.32055664 C19.06360245 31.30745408 21.38561011 31.30664842 23.70751953 31.31860352 C27.05474716 31.33366819 30.39910105 31.30384834 33.74609375 31.265625 C34.77661865 31.27988022 35.80714355 31.29413544 36.86889648 31.30882263 C43.47168059 31.17754964 46.89860892 29.89662342 51.57440186 25.18940735 C52.12606018 24.58678574 52.67771851 23.98416412 53.24609375 23.36328125 C54.08994629 22.53070801 54.93379883 21.69813477 55.80322266 20.84033203 C56.51913574 20.0873584 57.23504883 19.33438477 57.97265625 18.55859375 C58.77703125 17.7284375 59.58140625 16.89828125 60.41015625 16.04296875 C62.06626852 14.32376649 63.71459547 12.59703415 65.35546875 10.86328125 C66.15726562 10.04085937 66.9590625 9.2184375 67.78515625 8.37109375 C68.85564209 7.25178467 68.85564209 7.25178467 69.94775391 6.10986328 C72.7127493 4.00865476 74.82648414 3.67683239 78.24609375 3.36328125 C77.46388251 10.62516127 73.67812359 14.77692852 69.24609375 20.36328125 C68.83004883 20.894375 68.41400391 21.42546875 67.98535156 21.97265625 C55.55344385 37.73537698 40.37679728 50.35211625 19.80859375 53.05078125 C18.2891949 53.1741176 16.76810331 53.27800737 15.24609375 53.36328125 C14.49714844 53.41613281 13.74820313 53.46898437 12.9765625 53.5234375 C-2.53054301 54.08511219 -18.88457211 50.55235762 -33.75390625 46.36328125 C-36.70465294 43.41253456 -35.16906179 32.70424616 -35.21386719 28.52758789 C-35.24043783 26.63507734 -35.28132342 24.74271059 -35.33691406 22.85083008 C-35.41620357 20.12131268 -35.44920219 17.39456403 -35.47265625 14.6640625 C-35.50564819 13.82321609 -35.53864014 12.98236969 -35.57263184 12.11604309 C-35.56070268 8.59273588 -35.51216729 6.29285242 -33.23420715 3.50024414 C-23.88625054 -4.66820363 -11.1507538 -4.83000566 0 0 Z " fill="#19A10A" transform="translate(120.75390625,128.63671875)"/>
<path d="M0 0 C4.5603477 4.44422774 7.62145758 8.56230663 8.3359375 15.05078125 C8.43171526 23.04822406 7.92588126 28.7509227 2.38671875 34.74609375 C-3.80458467 40.47064703 -9.73932785 41.48305251 -18.03125 41.30859375 C-24.08258287 40.67957362 -28.16342734 38.17460573 -32.3125 33.8125 C-36.58503909 28.32590609 -38.36490379 22.75454098 -37.875 15.8125 C-36.71486722 7.8396726 -32.97944606 3.58150145 -27.125 -1.6875 C-18.55733795 -6.97929127 -7.90837584 -5.89251533 0 0 Z M-16 2 C-16 3.32 -16 4.64 -16 6 C-17.3921875 6.1546875 -17.3921875 6.1546875 -18.8125 6.3125 C-21.90245576 6.78720637 -21.90245576 6.78720637 -23.875 8.1875 C-25.58558918 10.94344924 -25.45339217 12.82625484 -25 16 C-22.80088378 18.88141958 -21.5726515 19.88428286 -17.984375 20.609375 C-16.91703125 20.65578125 -15.8496875 20.7021875 -14.75 20.75 C-13.67234375 20.80671875 -12.5946875 20.8634375 -11.484375 20.921875 C-10.66453125 20.94765625 -9.8446875 20.9734375 -9 21 C-9 22.65 -9 24.3 -9 26 C-10.79093191 26.08086147 -12.58289628 26.13912702 -14.375 26.1875 C-15.87160156 26.23970703 -15.87160156 26.23970703 -17.3984375 26.29296875 C-18.25695312 26.19628906 -19.11546875 26.09960938 -20 26 C-20.66 25.01 -21.32 24.02 -22 23 C-22.99 23 -23.98 23 -25 23 C-24.88658466 25.40877257 -24.88658466 25.40877257 -24 28 C-21.10451959 30.20970874 -19.66842255 31 -16 31 C-16 32.32 -16 33.64 -16 35 C-14.515 34.505 -14.515 34.505 -13 34 C-13 33.01 -13 32.02 -13 31 C-11.88625 30.87625 -11.88625 30.87625 -10.75 30.75 C-7.32464216 29.8158115 -6.0080387 28.93482579 -4 26 C-3.6690684 22.39969811 -3.6690684 22.39969811 -5 19 C-9.81735179 15.17082294 -15.14627552 15.68764711 -21 16 C-21 14.02 -21 12.04 -21 10 C-19.04082341 10.0868748 -17.08258129 10.19504512 -15.125 10.3125 C-14.03445312 10.37050781 -12.94390625 10.42851563 -11.8203125 10.48828125 C-10.88960937 10.65714844 -9.95890625 10.82601562 -9 11 C-8.01 12.485 -8.01 12.485 -7 14 C-6.01 13.67 -5.02 13.34 -4 13 C-5.24976756 9.34683329 -5.67098753 8.21934164 -9 6 C-10.32 6 -11.64 6 -13 6 C-13 4.68 -13 3.36 -13 2 C-13.99 2 -14.98 2 -16 2 Z " fill="#26C806" transform="translate(172,79)"/>
<path d="M0 0 C0.83402344 -0.00386719 1.66804688 -0.00773438 2.52734375 -0.01171875 C3.82865234 0.00568359 3.82865234 0.00568359 5.15625 0.0234375 C6.02378906 0.01183594 6.89132813 0.00023437 7.78515625 -0.01171875 C9.03619141 -0.00591797 9.03619141 -0.00591797 10.3125 0 C11.45428711 0.00507568 11.45428711 0.00507568 12.61914062 0.01025391 C15.23616775 0.50894436 16.00098373 1.3369575 17.65625 3.3984375 C18.03720093 5.36473083 18.03720093 5.36473083 18.04443359 7.62280273 C18.05389008 8.47055771 18.06334656 9.31831268 18.0730896 10.1917572 C18.06701691 11.10429764 18.06094421 12.01683807 18.0546875 12.95703125 C18.05755768 13.89772964 18.06042786 14.83842804 18.06338501 15.80763245 C18.06542665 17.79729819 18.05988979 19.78698397 18.04736328 21.77661133 C18.03132903 24.82093292 18.04719944 27.86392324 18.06640625 30.90820312 C18.06442348 32.84114876 18.06057912 34.77409357 18.0546875 36.70703125 C18.06379654 38.07280556 18.06379654 38.07280556 18.0730896 39.46617126 C18.0329791 43.07536866 17.99764027 45.69776955 16.40283203 48.97094727 C14.23186421 50.74529013 13.09913098 50.91317064 10.3125 50.9296875 C9.47847656 50.93484375 8.64445312 50.94 7.78515625 50.9453125 C6.91761719 50.92984375 6.05007812 50.914375 5.15625 50.8984375 C4.28871094 50.91390625 3.42117187 50.929375 2.52734375 50.9453125 C1.27630859 50.93757813 1.27630859 50.93757813 0 50.9296875 C-0.76119141 50.92517578 -1.52238281 50.92066406 -2.30664062 50.91601562 C-4.34375 50.3984375 -4.34375 50.3984375 -6.09033203 48.97094727 C-8.03889677 44.9717212 -7.77147661 41.09852814 -7.7421875 36.70703125 C-7.74649277 35.29454857 -7.74649277 35.29454857 -7.75088501 33.85353088 C-7.75292413 31.86564532 -7.7474049 29.87773962 -7.73486328 27.88989258 C-7.71878968 24.84345808 -7.73472644 21.7983467 -7.75390625 18.75195312 C-7.75192414 16.82030957 -7.74808114 14.88866683 -7.7421875 12.95703125 C-7.74826019 12.04449081 -7.75433289 11.13195038 -7.7605896 10.1917572 C-7.75113312 9.34400223 -7.74167664 8.49624725 -7.73193359 7.62280273 C-7.72954681 6.87763901 -7.72716003 6.13247528 -7.72470093 5.36473083 C-6.88077957 1.00879727 -4.07464328 0.01811336 0 0 Z " fill="#0F850D" transform="translate(64.34375,129.6015625)"/>
</svg>
