<?xml version="1.0" encoding="UTF-8"?>
<svg version="1.1" xmlns="http://www.w3.org/2000/svg" width="256" height="256">
<path d="M0 0 C3.26701612 2.66358727 6.39330111 5.45632415 9.50390625 8.30078125 C10.70273437 9.37585937 10.70273437 9.37585937 11.92578125 10.47265625 C23.25825114 21.16214912 31.2098136 34.17437024 37.50390625 48.30078125 C38.22707031 49.88246094 38.22707031 49.88246094 38.96484375 51.49609375 C50.85831091 79.68000685 49.73861746 113.35036059 38.81640625 141.55078125 C32.90108917 155.93572542 24.97072002 167.85461648 14.50390625 179.30078125 C13.7871875 180.1 13.07046875 180.89921875 12.33203125 181.72265625 C1.64759501 193.04976534 -11.36854673 201.02104767 -25.49609375 207.30078125 C-26.56214844 207.78289062 -27.62820312 208.265 -28.7265625 208.76171875 C-56.97676024 220.57739081 -90.47330584 219.55423479 -118.74609375 208.61328125 C-133.13109209 202.69851085 -145.05010841 194.76743095 -156.49609375 184.30078125 C-157.2953125 183.5840625 -158.09453125 182.86734375 -158.91796875 182.12890625 C-170.24507784 171.44447001 -178.21636017 158.42832827 -184.49609375 144.30078125 C-184.97820312 143.23472656 -185.4603125 142.16867188 -185.95703125 141.0703125 C-197.77270331 112.82011476 -196.74954729 79.32356916 -185.80859375 51.05078125 C-179.89382335 36.66578291 -171.96274345 24.74676659 -161.49609375 13.30078125 C-160.779375 12.5015625 -160.06265625 11.70234375 -159.32421875 10.87890625 C-148.63978251 -0.44820284 -135.62364077 -8.41948517 -121.49609375 -14.69921875 C-120.43003906 -15.18132813 -119.36398438 -15.6634375 -118.265625 -16.16015625 C-80.25411123 -32.05850802 -32.33712441 -25.48734406 0 0 Z M-131.49609375 41.30078125 C-147.26657584 58.76962295 -153.60955546 79.62781929 -152.87109375 102.80859375 C-151.98208856 119.03849466 -144.90803763 133.33685159 -135.49609375 146.30078125 C-135.49609375 146.63078125 -135.49609375 146.96078125 -135.49609375 147.30078125 C-137.14609375 147.30078125 -138.79609375 147.30078125 -140.49609375 147.30078125 C-140.99109375 149.28078125 -140.99109375 149.28078125 -141.49609375 151.30078125 C-136.27097096 152.76748238 -131.91467035 153.52655527 -126.49609375 153.30078125 C-124.90482485 148.42752025 -124.28417154 144.49287529 -124.49609375 139.30078125 C-125.81609375 139.30078125 -127.13609375 139.30078125 -128.49609375 139.30078125 C-128.82609375 140.95078125 -129.15609375 142.60078125 -129.49609375 144.30078125 C-130.15609375 144.30078125 -130.81609375 144.30078125 -131.49609375 144.30078125 C-131.74746094 143.77097656 -131.99882812 143.24117188 -132.2578125 142.6953125 C-133.19360086 140.88572807 -134.21132595 139.11820085 -135.265625 137.375 C-146.53140223 118.6992278 -150.33416783 99.31176317 -145.46484375 77.828125 C-139.96528776 57.80353203 -127.08673689 41.96947456 -109.49609375 31.30078125 C-92.70428022 21.8297152 -73.01152604 19.5302647 -54.42089844 24.30126953 C-48.49161529 26.0354734 -43.07270916 28.77210652 -37.72216797 31.83398438 C-35.63010666 33.03759569 -35.63010666 33.03759569 -32.49609375 34.30078125 C-30.06507979 33.69475965 -30.06507979 33.69475965 -28.49609375 32.30078125 C-38.75787896 21.19324451 -56.3426508 16.990901 -71.05859375 16.26953125 C-94.42268903 16.48193212 -114.85053267 24.75449787 -131.49609375 41.30078125 Z M-21.49609375 38.30078125 C-21.85801879 40.42447362 -22.21041122 42.54979255 -22.55859375 44.67578125 C-22.75582031 45.85914062 -22.95304687 47.0425 -23.15625 48.26171875 C-23.76544062 51.21529026 -23.76544062 51.21529026 -22.49609375 53.30078125 C-21.17609375 52.97078125 -19.85609375 52.64078125 -18.49609375 52.30078125 C-18.49609375 50.65078125 -18.49609375 49.00078125 -18.49609375 47.30078125 C-7.94388435 56.61155425 -1.40073321 72.11987784 -0.27539062 86.02856445 C0.63672764 108.7754799 -3.71941933 129.33985234 -19.09765625 146.84375 C-33.05668663 161.14379904 -50.37385855 169.17835275 -70.34472656 169.77148438 C-85.76296253 169.91482093 -98.08931898 167.13502089 -111.5703125 159.59375 C-114.33502759 158.07175296 -114.33502759 158.07175296 -116.890625 158.6015625 C-117.68533203 158.94767578 -117.68533203 158.94767578 -118.49609375 159.30078125 C-117.4559121 162.60575557 -116.31944685 163.41230186 -113.328125 165.30078125 C-94.82030329 174.82604035 -74.60075604 179.08765909 -53.99609375 173.80078125 C-42.02500454 169.6546967 -30.8478683 163.91683927 -21.49609375 155.30078125 C-20.7175 154.59050781 -19.93890625 153.88023437 -19.13671875 153.1484375 C-5.16531106 139.80996271 4.99991918 120.96929956 5.7421875 101.4296875 C6.19099513 79.13757258 0.14151148 61.02966804 -13.49609375 43.30078125 C-12.32046875 43.57921875 -12.32046875 43.57921875 -11.12109375 43.86328125 C-8.525196 44.56040391 -8.525196 44.56040391 -6.49609375 43.30078125 C-6.99109375 41.32078125 -6.99109375 41.32078125 -7.49609375 39.30078125 C-12.1681058 38.09510072 -16.71105667 38.20695699 -21.49609375 38.30078125 Z M-78.265625 45.10498047 C-79.06315186 45.49894012 -79.86067871 45.89289978 -80.68237305 46.29879761 C-81.54902588 46.72999908 -82.41567871 47.16120056 -83.30859375 47.60546875 C-84.19264893 48.0446463 -85.0767041 48.48382385 -85.98754883 48.93630981 C-87.86108314 49.86834395 -89.73403179 50.80155614 -91.60644531 51.73583984 C-94.48089605 53.16820808 -97.35949271 54.59199951 -100.23828125 56.015625 C-102.0536488 56.92004444 -103.86876164 57.82497536 -105.68359375 58.73046875 C-106.55024658 59.15762177 -107.41689941 59.58477478 -108.30981445 60.02487183 C-109.50610474 60.62526779 -109.50610474 60.62526779 -110.7265625 61.23779297 C-111.43192139 61.5886496 -112.13728027 61.93950623 -112.86401367 62.30099487 C-114.67122619 63.21013801 -114.67122619 63.21013801 -115.49609375 65.30078125 C-109.92075526 68.18997306 -104.33295734 71.05386657 -98.73583984 73.90063477 C-96.83379623 74.87175658 -94.93466572 75.84860634 -93.03857422 76.83129883 C-90.31054707 78.24389958 -87.57266248 79.63548231 -84.83203125 81.0234375 C-83.98804779 81.46607437 -83.14406433 81.90871124 -82.27450562 82.36476135 C-78.84487576 84.08087089 -76.33678596 85.29156075 -72.46875 85.33398438 C-68.3285608 83.894983 -64.49426288 82.04544224 -60.59765625 80.046875 C-59.76269623 79.62656509 -58.92773621 79.20625519 -58.06747437 78.77320862 C-55.41481393 77.43572872 -52.76795143 76.08720227 -50.12109375 74.73828125 C-48.31808024 73.82673797 -46.51469859 72.91592247 -44.7109375 72.00585938 C-40.30168121 69.77924006 -35.89758929 67.54270001 -31.49609375 65.30078125 C-35.32996879 62.08823403 -39.71178614 60.05788952 -44.1640625 57.8515625 C-44.99948074 57.43408249 -45.83489899 57.01660248 -46.69563293 56.58647156 C-48.45556617 55.70801171 -50.21646816 54.83149034 -51.97827148 53.95678711 C-54.68641226 52.61188153 -57.39126842 51.26054317 -60.09570312 49.90820312 C-61.80580072 49.05561066 -63.51608085 48.2033842 -65.2265625 47.3515625 C-66.44680367 46.74227654 -66.44680367 46.74227654 -67.69169617 46.12068176 C-73.05541604 43.22905005 -73.05541604 43.22905005 -78.265625 45.10498047 Z M-125.00390625 70.54296875 C-125.53757812 71.08179687 -126.07125 71.620625 -126.62109375 72.17578125 C-127.42933594 72.97628906 -127.42933594 72.97628906 -128.25390625 73.79296875 C-129.70804289 75.2324539 -129.70804289 75.2324539 -129.49609375 77.30078125 C-115.63609375 84.23078125 -101.77609375 91.16078125 -87.49609375 98.30078125 C-80.90031979 93.43261417 -80.90031979 93.43261417 -79.49609375 90.30078125 C-85.43812016 87.3044777 -91.3832334 84.31436983 -97.33056641 81.32861328 C-99.35472627 80.31149489 -101.37816684 79.29294375 -103.40087891 78.27294922 C-106.30314637 76.80972863 -109.2079352 75.35162745 -112.11328125 73.89453125 C-113.02165741 73.43518188 -113.93003357 72.97583252 -114.86593628 72.50256348 C-115.7066568 72.08212769 -116.54737732 71.66169189 -117.41357422 71.22851562 C-118.15525848 70.85545288 -118.89694275 70.48239014 -119.66110229 70.09802246 C-122.07019808 69.0513525 -122.93630671 68.83960955 -125.00390625 70.54296875 Z M-29.57861328 71.22851562 C-30.4193338 71.64895142 -31.26005432 72.06938721 -32.12625122 72.50256348 C-33.03462738 72.96191284 -33.94300354 73.42126221 -34.87890625 73.89453125 C-35.80831024 74.36064819 -36.73771423 74.82676514 -37.69528198 75.30700684 C-40.67244444 76.80119957 -43.64678216 78.30092292 -46.62109375 79.80078125 C-48.63523348 80.81286463 -50.64955411 81.82458811 -52.6640625 82.8359375 C-57.61018193 85.32004149 -62.55399147 87.80869562 -67.49609375 90.30078125 C-66.54187567 91.45004391 -65.5825733 92.59508666 -64.62109375 93.73828125 C-64.08742187 94.37636719 -63.55375 95.01445313 -63.00390625 95.671875 C-61.57381805 97.40883129 -61.57381805 97.40883129 -59.49609375 98.30078125 C-57.55810854 97.62566199 -57.55810854 97.62566199 -55.41357422 96.48657227 C-54.5728537 96.06606094 -53.73213318 95.64554962 -52.86593628 95.21229553 C-51.95756012 94.74778488 -51.04918396 94.28327423 -50.11328125 93.8046875 C-48.71917526 93.10338966 -48.71917526 93.10338966 -47.29690552 92.38792419 C-44.31781308 90.88714769 -41.34446181 89.3753623 -38.37109375 87.86328125 C-36.35713821 86.84627737 -34.34281982 85.82999169 -32.328125 84.81445312 C-27.37986794 82.3182265 -22.43628492 79.81292954 -17.49609375 77.30078125 C-19.05986874 73.97775939 -20.70962526 71.73894118 -23.49609375 69.30078125 C-26.01256121 69.30078125 -27.32864591 70.09679551 -29.57861328 71.22851562 Z M-120.49609375 89.30078125 C-120.49609375 101.18078125 -120.49609375 113.06078125 -120.49609375 125.30078125 C-109.84364528 130.9598945 -99.15620918 136.52351305 -88.37109375 141.92578125 C-87.31019531 142.45848633 -86.24929687 142.99119141 -85.15625 143.54003906 C-84.17269531 144.03084961 -83.18914062 144.52166016 -82.17578125 145.02734375 C-80.85682861 145.68597412 -80.85682861 145.68597412 -79.51123047 146.35791016 C-77.71593608 147.37141431 -77.71593608 147.37141431 -76.49609375 147.30078125 C-76.49609375 131.13078125 -76.49609375 114.96078125 -76.49609375 98.30078125 C-79.96109375 101.27078125 -79.96109375 101.27078125 -83.49609375 104.30078125 C-88.53540463 105.2774843 -92.22689789 103.33089623 -96.609375 101.01953125 C-97.26439499 100.68659058 -97.91941498 100.3536499 -98.59428406 100.01062012 C-100.67170799 98.95191399 -102.74019393 97.8769944 -104.80859375 96.80078125 C-106.89651767 95.72814363 -108.98612108 94.65886154 -111.07646179 93.59094238 C-112.3736841 92.92672534 -113.66916037 92.25908538 -114.96272278 91.58776855 C-117.59727615 89.98649112 -117.59727615 89.98649112 -120.49609375 89.30078125 Z M-35.078125 92.58203125 C-36.41583723 93.26597403 -37.75373376 93.94955645 -39.09179688 94.6328125 C-41.20054281 95.71503868 -43.30758673 96.80025863 -45.41137695 97.89208984 C-47.44164127 98.94358316 -49.47803247 99.98232664 -51.515625 101.01953125 C-52.13975784 101.34763794 -52.76389069 101.67574463 -53.40693665 102.01379395 C-59.67916335 105.18599615 -59.67916335 105.18599615 -63.49609375 104.30078125 C-65.80609375 102.32078125 -68.11609375 100.34078125 -70.49609375 98.30078125 C-70.49609375 114.47078125 -70.49609375 130.64078125 -70.49609375 147.30078125 C-54.3715811 139.67178442 -54.3715811 139.67178442 -38.37109375 131.80078125 C-37.32050781 131.27742188 -36.26992187 130.7540625 -35.1875 130.21484375 C-34.19363281 129.71726563 -33.19976562 129.2196875 -32.17578125 128.70703125 C-30.85682861 128.04670898 -30.85682861 128.04670898 -29.51123047 127.37304688 C-27.55702907 126.45907535 -27.55702907 126.45907535 -26.49609375 125.30078125 C-26.40754214 122.63452095 -26.38084702 119.99431011 -26.3984375 117.328125 C-26.39985245 116.53048233 -26.4012674 115.73283966 -26.40272522 114.911026 C-26.40834059 112.3534069 -26.42089563 109.79587407 -26.43359375 107.23828125 C-26.43860677 105.5084648 -26.44317002 103.77864699 -26.44726562 102.04882812 C-26.458315 97.79944572 -26.47558989 93.55012813 -26.49609375 89.30078125 C-29.70864689 89.30078125 -32.28223812 91.12639632 -35.078125 92.58203125 Z " fill="#14A300" transform="translate(201.49609375,31.69921875)"/>
</svg>
