<?xml version="1.0" encoding="UTF-8"?>
<svg version="1.1" xmlns="http://www.w3.org/2000/svg" width="256" height="256">
<path d="M0 0 C0.82740364 0.11052312 1.65480727 0.22104625 2.50728375 0.33491856 C8.13365192 1.17002887 8.13365192 1.17002887 10.3818512 3.41822815 C10.96355514 6.22637879 11.42106285 8.96266746 11.80007935 11.80007935 C11.9190278 12.67513408 12.03797625 13.55018881 12.1605292 14.45176035 C16.93690127 51.36304805 22.09874895 95.0420621 -1.57003903 126.41324306 C-17.61411461 146.68774924 -37.07421205 164.10923563 -56.47505414 181.08967078 C-65.76056088 189.24013706 -74.709797 197.72915222 -83.66196644 206.24196041 C-96.85205733 218.76202983 -110.14834641 231.17380203 -123.75977707 243.2358284 C-125.21166542 244.52503419 -126.65855486 245.81989495 -128.10002327 247.12074089 C-130.06632004 248.89128485 -132.05124362 250.63793202 -134.04382324 252.37878418 C-134.61096654 252.89605904 -135.17810985 253.4133339 -135.76243931 253.94628376 C-138.61917209 256.39319519 -140.4959328 257.3998726 -144.24390411 257.96277809 C-148.13266753 257.33519293 -149.41891777 256.4961692 -152.1803894 253.74487305 C-153.01459915 252.93040207 -153.8488089 252.11593109 -154.70829773 251.27677917 C-156.0451059 249.91871658 -156.0451059 249.91871658 -157.40892029 248.53321838 C-158.37401619 247.57761295 -159.34059375 246.62350193 -160.30853271 245.67077637 C-162.92788033 243.08330443 -165.52464358 240.47422047 -168.11695743 237.85969806 C-170.83442425 235.12449035 -173.56895005 232.40642404 -176.30078125 229.68557739 C-180.88530644 225.11378214 -185.45488696 220.52743763 -190.01634216 215.93263245 C-195.28787389 210.62300552 -200.58415123 205.3390684 -205.89398903 200.06777042 C-210.45480658 195.53873395 -215.00182162 190.99617894 -219.53761154 186.44207722 C-222.24554305 183.72324069 -224.95796223 181.00933544 -227.6829052 178.30753899 C-230.24428016 175.76640795 -232.78788127 173.20871852 -235.31886101 170.63732338 C-236.69315907 169.24937666 -238.08471084 167.87858067 -239.47669983 166.50837708 C-240.6984063 165.25706245 -240.6984063 165.25706245 -241.9447937 163.98046875 C-242.65838767 163.2642356 -243.37198164 162.54800245 -244.10719967 161.81006527 C-246.25785617 158.40556942 -246.21320565 156.38027158 -245.6181488 152.41822815 C-244.01575382 149.92657214 -242.54748928 148.00248983 -240.57870483 145.84390259 C-240.03476171 145.22130521 -239.49081858 144.59870783 -238.93039232 143.95724386 C-237.10167625 141.87587572 -235.24755041 139.81908811 -233.39134216 137.76222229 C-232.0700436 136.27419145 -230.74951655 134.78547524 -229.42970276 133.29612732 C-217.18446925 119.54635541 -204.57788417 106.12118614 -191.89093685 92.77944279 C-183.39755155 83.83741355 -175.02563102 74.82879347 -166.90257263 65.54786682 C-116.26702762 7.84548441 -77.27037207 -10.50356133 0 0 Z M-65.6181488 40.10572815 C-71.23182287 45.62787492 -74.25281861 51.76026822 -74.8681488 59.60572815 C-74.38446396 66.981922 -71.95487299 74.13196944 -66.6181488 79.41822815 C-59.51595785 84.60154049 -53.48793599 87.0095473 -44.6181488 86.41822815 C-36.28956792 84.89284704 -30.01373415 80.24689656 -25.1650238 73.3518219 C-21.50201052 66.34824368 -21.17397003 58.07027305 -23.5009613 50.57447815 C-26.75702261 43.41545594 -31.20587228 39.18529992 -38.1181488 35.60572815 C-48.01543688 32.24771969 -57.43581866 33.24661311 -65.6181488 40.10572815 Z M-136.6181488 98.41822815 C-139.17047641 102.24671956 -138.89918453 105.35277282 -138.87693787 109.7893219 C-138.8804425 110.64325531 -138.88394714 111.49718872 -138.88755798 112.3769989 C-138.89636975 115.20332436 -138.8905281 118.02940008 -138.8837738 120.85572815 C-138.88512061 122.8172358 -138.88706128 124.77874313 -138.88957214 126.74024963 C-138.89252265 130.85266801 -138.88822808 134.96499955 -138.87889099 139.07740784 C-138.86749652 144.35365714 -138.87405638 149.62970299 -138.88603592 154.90594482 C-138.89325647 158.95677733 -138.89096569 163.00756144 -138.88578033 167.05839539 C-138.88444438 169.00409469 -138.88608967 170.94979835 -138.89073944 172.89549255 C-138.89580784 175.6128252 -138.88809 178.32982648 -138.87693787 181.0471344 C-138.88098633 181.85450043 -138.88503479 182.66186646 -138.88920593 183.49369812 C-138.85996409 187.33184636 -138.79837345 189.14789118 -136.6181488 192.41822815 C-133.6181488 192.91822815 -133.6181488 192.91822815 -130.6181488 192.41822815 C-128.0658212 188.58973674 -128.33711308 185.48368348 -128.35935974 181.0471344 C-128.3558551 180.19320099 -128.35235046 179.33926758 -128.34873962 178.4594574 C-128.33992786 175.63313193 -128.34576951 172.80705622 -128.3525238 169.98072815 C-128.35117699 168.0192205 -128.34923633 166.05771317 -128.34672546 164.09620667 C-128.34377495 159.98378829 -128.34806952 155.87145675 -128.35740662 151.75904846 C-128.36880108 146.48279916 -128.36224123 141.20675331 -128.35026169 135.93051147 C-128.34304114 131.87967897 -128.34533192 127.82889486 -128.35051727 123.77806091 C-128.35185323 121.83236161 -128.35020794 119.88665795 -128.34555817 117.94096375 C-128.34048977 115.2236311 -128.3482076 112.50662982 -128.35935974 109.7893219 C-128.35531128 108.98195587 -128.35126282 108.17458984 -128.34709167 107.34275818 C-128.37633352 103.50460994 -128.43792416 101.68856512 -130.6181488 98.41822815 C-133.6181488 97.91822815 -133.6181488 97.91822815 -136.6181488 98.41822815 Z M-179.0556488 126.04322815 C-181.17323187 130.61720758 -181.29223342 134.45829692 -180.6181488 139.41822815 C-178.87640195 143.77259528 -175.71357512 147.11344278 -171.6181488 149.41822815 C-167.18112801 150.72229878 -163.74600918 150.80864136 -159.3681488 149.29322815 C-155.34614973 146.55095606 -152.18317556 144.11330841 -150.6181488 139.41822815 C-149.99546928 134.33004688 -149.82828794 129.86236194 -152.7431488 125.48072815 C-156.39236269 121.14664779 -159.92278062 119.60660239 -165.5556488 118.98072815 C-171.42672121 119.23892063 -175.14239338 121.82895307 -179.0556488 126.04322815 Z M-113.4306488 145.91822815 C-116.95485598 149.94589349 -117.0220322 153.69508758 -116.9618988 158.8440094 C-116.40831144 162.98962384 -114.61186851 165.57458938 -111.6181488 168.41822815 C-107.20329504 171.45957186 -102.89364489 172.32638898 -97.6181488 171.41822815 C-93.61706692 169.98173425 -91.06315926 167.89747018 -88.1806488 164.79322815 C-86.06306573 160.21924872 -85.94406419 156.37815938 -86.6181488 151.41822815 C-88.35989566 147.06386102 -91.52272249 143.72301352 -95.6181488 141.41822815 C-102.9956989 139.24991593 -107.70965709 140.83290218 -113.4306488 145.91822815 Z " fill="#26AD00" transform="translate(245.61814880371094,-1.4182281494140625)"/>
<path d="M0 0 C1.9375 1.0625 1.9375 1.0625 3 3 C2.55555556 9.44444444 2.55555556 9.44444444 1 11 C-4.8410596 11.37086093 -4.8410596 11.37086093 -7 11 C-9.15502531 7.76746204 -9.46856135 6.74849077 -9 3 C-6.73529086 -0.64869805 -4.03159541 -0.50394943 0 0 Z " fill="#1C9300" transform="translate(147,149)"/>
<path d="M0 0 C0.94552734 0.16242188 0.94552734 0.16242188 1.91015625 0.328125 C4.06518156 3.56066296 4.3787176 4.57963423 3.91015625 8.328125 C2.78515625 10.140625 2.78515625 10.140625 0.91015625 11.328125 C-2.234703 11.72123241 -4.22266046 11.80367713 -7.02734375 10.265625 C-8.72165548 7.17599773 -7.8293606 4.65595082 -7.08984375 1.328125 C-5.19856033 -0.56315842 -2.51916649 0.0914398 0 0 Z " fill="#22A100" transform="translate(82.08984375,127.671875)"/>
</svg>
